<?xml version="1.0" encoding="iso-8859-1"?>
<!-- Generator: Adobe Illustrator 19.0.0, SVG Export Plug-In . SVG Version: 6.00 Build 0)  -->
<svg version="1.1" id="Capa_1" xmlns="http://www.w3.org/2000/svg" xmlns:xlink="http://www.w3.org/1999/xlink" x="0px" y="0px"
	 viewBox="0 0 491.52 491.52" style="enable-background:new 0 0 491.52 491.52;" xml:space="preserve">
<g>
	<circle style="fill:#E05B49;" cx="245.76" cy="245.76" r="245.76"/>
	<path style="fill:#E05B49;" d="M251.392,343.04L251.392,343.04L251.392,343.04L251.392,343.04z"/>
	<path style="fill:#E05B49;" d="M480.256,320L281.6,121.344c-5.12-6.144-10.752-9.728-10.752-9.728
		c11.776,8.704-5.12,28.672-8.704,37.376l0,0l-29.696-29.696c-4.608-5.12-8.704-7.68-8.704-7.68
		c11.776,8.704-5.12,28.672-8.704,37.376c0,0.512,0,0.512-0.512,0.512l-31.232-31.232c-4.096-4.608-8.192-7.168-8.192-7.168
		c11.776,8.704-5.12,28.672-8.704,37.376c-8.192,18.944-3.072,28.16,3.584,32.768l0,0l18.944,18.944H104.96
		c0,43.52,37.888,142.336,104.448,142.336H112.64v3.072v3.072c0,7.68,3.072,14.848,7.68,20.48l0,0l0.512,0.512
		c0.512,0.512,1.536,1.536,2.048,2.048L242.176,491.52c1.024,0,2.56,0,3.584,0C355.84,491.52,448.512,419.328,480.256,320z
		 M251.392,343.04L251.392,343.04L251.392,343.04L251.392,343.04z"/>
</g>
<path style="opacity:0.1;enable-background:new    ;" d="M480.256,320L281.6,121.344c-5.12-6.144-10.752-9.728-10.752-9.728
	c11.776,8.704-5.12,28.672-8.704,37.376l0,0l-29.696-29.696c-4.608-5.12-8.704-7.68-8.704-7.68
	c11.776,8.704-5.12,28.672-8.704,37.376c0,0.512,0,0.512-0.512,0.512l-31.232-31.232c-4.096-4.608-8.192-7.168-8.192-7.168
	c11.776,8.704-5.12,28.672-8.704,37.376c-8.192,18.944-3.072,28.16,3.584,32.768l0,0l18.944,18.944H104.96
	c0,43.52,37.888,142.336,104.448,142.336H112.64v3.072v3.072c0,7.68,3.072,14.848,7.68,20.48l0,0l0.512,0.512
	c0.512,0.512,1.536,1.536,2.048,2.048L242.176,491.52c1.024,0,2.56,0,3.584,0C355.84,491.52,448.512,419.328,480.256,320z
	 M251.392,343.04L251.392,343.04L251.392,343.04L251.392,343.04z"/>
<g>
	<path style="fill:#FCD462;" d="M316.416,310.272c-3.584,0-6.656,0-9.728,0c-2.56,0-5.12,0-7.68,0V291.84c2.56,0,5.12,0,8.192,0
		c18.432,0.512,43.008,0.512,54.272-10.752c4.608-4.608,6.656-10.752,6.656-19.456c0-20.992-7.68-29.696-26.624-29.696v-18.432
		c28.672,0,45.056,16.896,45.056,48.128c0,13.312-4.096,24.576-12.288,32.256C359.936,308.736,336.384,310.272,316.416,310.272z"/>
	<path style="fill:#FCD462;" d="M354.304,200.704c0,43.52-36.352,142.336-102.912,142.336h-41.984
		c-66.56,0-104.448-99.328-104.448-142.336L354.304,200.704L354.304,200.704z"/>
</g>
<path style="fill:#F6C358;" d="M104.96,200.704c0,43.52,37.888,142.336,104.448,142.336h21.504l-1.536-142.336L104.96,200.704
	L104.96,200.704z"/>
<g>
	<path style="fill:#FCD462;" d="M338.944,380.416H143.872c-17.408,0-31.232-13.824-31.232-31.232v-6.144h257.536v6.144
		C370.176,366.592,356.352,380.416,338.944,380.416z"/>
	<path style="fill:#FCD462;" d="M174.592,111.104c0,0,31.232,20.992,11.776,43.008c-5.12,6.144-16.896,9.728-4.096,31.744
		c0,0-31.744-1.536-16.384-37.376C169.472,139.776,185.856,119.808,174.592,111.104z"/>
	<path style="fill:#FCD462;" d="M223.232,111.104c0,0,31.232,20.992,11.776,43.008c-5.12,6.144-16.896,9.728-4.096,31.744
		c0,0-31.744-1.536-16.384-37.376C217.6,139.776,234.496,119.808,223.232,111.104z"/>
	<path style="fill:#FCD462;" d="M270.848,111.104c0,0,31.232,20.992,11.776,43.008c-5.12,6.144-16.896,9.728-4.096,31.744
		c0,0-31.744-1.536-16.384-37.376C265.216,139.776,282.112,119.808,270.848,111.104z"/>
</g>
<path style="fill:#F6C358;" d="M146.944,380.416c-18.944,0-34.304-15.36-34.304-34.304v-3.072h118.272v37.376L146.944,380.416
	L146.944,380.416z"/>
<g>
</g>
<g>
</g>
<g>
</g>
<g>
</g>
<g>
</g>
<g>
</g>
<g>
</g>
<g>
</g>
<g>
</g>
<g>
</g>
<g>
</g>
<g>
</g>
<g>
</g>
<g>
</g>
<g>
</g>
</svg>
